<svg width="80" height="81" viewBox="0 0 80 81" fill="none" xmlns="http://www.w3.org/2000/svg">
<path d="M80 40.5C80 62.5914 62.0914 80.5 40 80.5C17.9086 80.5 0 62.5914 0 40.5C0 18.4086 17.9086 0.5 40 0.5C62.0914 0.5 80 18.4086 80 40.5ZM9.6 40.5C9.6 57.2895 23.2105 70.9 40 70.9C56.7895 70.9 70.4 57.2895 70.4 40.5C70.4 23.7105 56.7895 10.1 40 10.1C23.2105 10.1 9.6 23.7105 9.6 40.5Z" fill="#3A3A3D"/>
<path d="M78.3 40.5C78.9552 40.5 79.2828 40.5 79.5278 40.6552C79.6612 40.7397 79.7808 40.8645 79.8595 41.0013C80.0041 41.2527 79.9907 41.5683 79.9639 42.1995C79.7982 46.0961 79.0635 49.9476 77.7831 53.6315C77.5757 54.2283 77.472 54.5267 77.2449 54.7072C77.1214 54.8054 76.9642 54.8774 76.8092 54.9068C76.5242 54.961 76.2196 54.8404 75.6104 54.5992L69.8458 52.3168C69.2394 52.0767 68.9362 51.9567 68.769 51.7428C68.6718 51.6185 68.6113 51.4888 68.5786 51.3344C68.5222 51.0689 68.6303 50.7438 68.8465 50.0937C69.6957 47.5404 70.2021 44.8857 70.3525 42.1991C70.3908 41.5151 70.4099 41.173 70.5601 40.9469C70.6474 40.8154 70.7513 40.7171 70.8875 40.6373C71.1217 40.5 71.4478 40.5 72.1 40.5H78.3Z" fill="#A0D7E7"/>
<path d="M37.238 43.296C37.924 42.372 38.26 41.14 38.26 39.6C38.26 38.06 37.924 36.828 37.238 35.904C36.566 34.98 35.628 34.518 34.41 34.518C33.192 34.518 32.254 34.98 31.568 35.904C30.896 36.828 30.56 38.06 30.56 39.6C30.56 41.14 30.896 42.372 31.568 43.296C32.254 44.22 33.192 44.682 34.41 44.682C35.628 44.682 36.566 44.22 37.238 43.296ZM34.41 43.114C32.968 43.114 32.17 41.854 32.17 39.6C32.17 37.346 32.968 36.086 34.41 36.086C35.866 36.086 36.65 37.346 36.65 39.6C36.65 41.854 35.866 43.114 34.41 43.114ZM43.9629 36.758C43.9629 36.128 43.7389 35.596 43.3049 35.162C42.8709 34.728 42.3389 34.518 41.6809 34.518C41.0229 34.518 40.4769 34.742 40.0429 35.176C39.6089 35.61 39.3849 36.128 39.3849 36.758C39.3849 37.388 39.6089 37.92 40.0429 38.354C40.4769 38.788 41.0229 38.998 41.6809 38.998C42.3389 38.998 42.8709 38.788 43.3049 38.354C43.7389 37.92 43.9629 37.388 43.9629 36.758ZM41.6669 37.766C41.0929 37.766 40.6729 37.318 40.6729 36.758C40.6729 36.184 41.0929 35.736 41.6669 35.736C42.2689 35.736 42.6749 36.184 42.6749 36.758C42.6749 37.318 42.2689 37.766 41.6669 37.766ZM40.9669 43.506L47.4209 36.31L46.6649 35.876L40.2109 43.058L40.9669 43.506ZM46.1609 44.668C46.8049 44.668 47.3509 44.458 47.7849 44.024C48.2189 43.59 48.4429 43.058 48.4429 42.428C48.4429 41.798 48.2189 41.28 47.7849 40.846C47.3509 40.412 46.8049 40.188 46.1609 40.188C45.5029 40.188 44.9569 40.412 44.5229 40.846C44.0889 41.28 43.8649 41.798 43.8649 42.428C43.8649 43.058 44.0889 43.59 44.5229 44.024C44.9569 44.458 45.5029 44.668 46.1609 44.668ZM46.1469 43.436C45.5729 43.436 45.1529 42.988 45.1529 42.428C45.1529 41.854 45.5729 41.406 46.1469 41.406C46.7489 41.406 47.1549 41.854 47.1549 42.428C47.1549 42.988 46.7489 43.436 46.1469 43.436Z" fill="#A0D7E7"/>
</svg>
