<svg width="40" height="41" viewBox="0 0 40 41" fill="none" xmlns="http://www.w3.org/2000/svg">
<path d="M15.0007 3.83325H25.0007C33.334 3.83325 36.6673 7.16659 36.6673 15.4999V25.4999C36.6673 33.8333 33.334 37.1666 25.0007 37.1666H15.0007C6.66732 37.1666 3.33398 33.8333 3.33398 25.4999V15.4999C3.33398 7.16659 6.66732 3.83325 15.0007 3.83325Z" stroke="#E5CB9B" stroke-width="2" stroke-linecap="round" stroke-linejoin="round"/>
<path d="M14.2832 25.95L25.1832 15.05" stroke="#E5CB9B" stroke-width="2" stroke-linecap="round" stroke-linejoin="round"/>
<path d="M14.966 17.7833C16.0982 17.7833 17.016 16.8656 17.016 15.7334C17.016 14.6012 16.0982 13.6833 14.966 13.6833C13.8339 13.6833 12.916 14.6012 12.916 15.7334C12.916 16.8656 13.8339 17.7833 14.966 17.7833Z" stroke="#E5CB9B" stroke-width="2" stroke-linecap="round" stroke-linejoin="round"/>
<path d="M25.8664 27.3168C26.9986 27.3168 27.9164 26.3989 27.9164 25.2668C27.9164 24.1346 26.9986 23.2168 25.8664 23.2168C24.7342 23.2168 23.8164 24.1346 23.8164 25.2668C23.8164 26.3989 24.7342 27.3168 25.8664 27.3168Z" stroke="#E5CB9B" stroke-width="2" stroke-linecap="round" stroke-linejoin="round"/>
</svg>
