<svg width="40" height="41" viewBox="0 0 40 41" fill="none" xmlns="http://www.w3.org/2000/svg">
<path d="M36.666 10.4999V14.5333C36.666 17.1666 34.9993 18.8333 32.366 18.8333H26.666V7.18325C26.666 5.33325 28.1827 3.83325 30.0327 3.83325C31.8494 3.84992 33.516 4.58325 34.716 5.78325C35.916 6.99992 36.666 8.66659 36.666 10.4999Z" stroke="#E39AB2" stroke-width="2" stroke-miterlimit="10" stroke-linecap="round" stroke-linejoin="round"/>
<path d="M3.33398 12.1666V35.4999C3.33398 36.8833 4.90061 37.6666 6.00061 36.8333L8.85065 34.6999C9.51731 34.1999 10.4507 34.2666 11.0507 34.8666L13.8173 37.6499C14.4673 38.2999 15.534 38.2999 16.184 37.6499L18.984 34.8499C19.5673 34.2666 20.5007 34.1999 21.1507 34.6999L24.0007 36.8333C25.1007 37.6499 26.6673 36.8666 26.6673 35.4999V7.16659C26.6673 5.33325 28.1673 3.83325 30.0007 3.83325H11.6673H10.0007C5.00065 3.83325 3.33398 6.81659 3.33398 10.4999V12.1666Z" stroke="#E39AB2" stroke-width="2" stroke-miterlimit="10" stroke-linecap="round" stroke-linejoin="round"/>
<path d="M10 15.5H20" stroke="#E39AB2" stroke-width="2" stroke-linecap="round" stroke-linejoin="round"/>
<path d="M11.25 22.1667H18.75" stroke="#E39AB2" stroke-width="2" stroke-linecap="round" stroke-linejoin="round"/>
</svg>
