<svg width="16" height="17" viewBox="0 0 16 17" fill="none" xmlns="http://www.w3.org/2000/svg">
<path d="M14.666 4.83325H10.666" stroke="#727080" stroke-width="1.5" stroke-miterlimit="10" stroke-linecap="round" stroke-linejoin="round"/>
<path d="M4.00065 4.83325H1.33398" stroke="#727080" stroke-width="1.5" stroke-miterlimit="10" stroke-linecap="round" stroke-linejoin="round"/>
<path d="M6.66732 7.16667C7.95598 7.16667 9.00065 6.122 9.00065 4.83333C9.00065 3.54467 7.95598 2.5 6.66732 2.5C5.37865 2.5 4.33398 3.54467 4.33398 4.83333C4.33398 6.122 5.37865 7.16667 6.66732 7.16667Z" stroke="#727080" stroke-width="1.5" stroke-miterlimit="10" stroke-linecap="round" stroke-linejoin="round"/>
<path d="M14.6667 12.1667H12" stroke="#727080" stroke-width="1.5" stroke-miterlimit="10" stroke-linecap="round" stroke-linejoin="round"/>
<path d="M5.33398 12.1667H1.33398" stroke="#727080" stroke-width="1.5" stroke-miterlimit="10" stroke-linecap="round" stroke-linejoin="round"/>
<path d="M9.33333 14.4999C10.622 14.4999 11.6667 13.4552 11.6667 12.1666C11.6667 10.8779 10.622 9.83325 9.33333 9.83325C8.04467 9.83325 7 10.8779 7 12.1666C7 13.4552 8.04467 14.4999 9.33333 14.4999Z" stroke="#727080" stroke-width="1.5" stroke-miterlimit="10" stroke-linecap="round" stroke-linejoin="round"/>
</svg>
