<svg width="24" height="24" viewBox="0 0 24 24" fill="none" xmlns="http://www.w3.org/2000/svg">
<rect opacity="0.01" width="24" height="24" fill="#727080"/>
<path opacity="0.3" fill-rule="evenodd" clip-rule="evenodd" d="M1.71387 12.0001C1.71387 9.15975 2.71807 6.73538 4.72648 4.72697C6.73489 2.71856 9.15926 1.71436 11.9996 1.71436C14.8399 1.71436 17.2643 2.71856 19.2727 4.72697C21.2811 6.73538 22.2853 9.15975 22.2853 12.0001C22.2853 14.8404 21.2811 17.2648 19.2727 19.2732C17.2643 21.2816 14.8399 22.2858 11.9996 22.2858C9.15926 22.2858 6.73489 21.2816 4.72648 19.2732C2.71807 17.2648 1.71387 14.8404 1.71387 12.0001Z" fill="#727080"/>
<path fill-rule="evenodd" clip-rule="evenodd" d="M6.16416 14.5655C5.96599 14.2687 5.94132 13.8886 6.09944 13.5686C6.25756 13.2486 6.57443 13.0373 6.93063 13.0143C7.28684 12.9913 7.62823 13.1602 7.82614 13.4572C8.98159 15.1913 10.3453 16.009 11.9893 16.009C13.6333 16.009 14.997 15.1904 16.1524 13.4573C16.4585 12.9983 17.0786 12.8744 17.5376 13.1804C17.9965 13.4864 18.1205 14.1066 17.8144 14.5655C16.3067 16.8275 14.3404 18.007 11.9859 18.007C9.6313 18.007 7.66844 16.8275 6.16416 14.5655Z" fill="#727080"/>
</svg>
